<svg width="598.0" height="84" viewBox="8 8 598 84" xmlns="http://www.w3.org/2000/svg" role="img" aria-label="TIVORA ERP" style="display: block;"><defs><mask id="tw3" maskUnits="userSpaceOnUse" x="0" y="0" width="100" height="100"><rect width="100" height="100" fill="#fff"></rect><path d="M29 29 L71 71 M71 29 L29 71" stroke="#000" stroke-width="12"></path></mask><mask id="tw4" maskUnits="userSpaceOnUse" x="0" y="0" width="100" height="100"><rect width="100" height="100" fill="#fff"></rect><path d="M44 44 L56 56" stroke="#000" stroke-width="12"></path></mask></defs><g mask="url(#tw3)"><rect x="12" y="12" width="34" height="34" rx="11" fill="none" stroke="#FFFFFF" stroke-width="7"></rect><rect x="54" y="12" width="34" height="34" rx="11" fill="none" stroke="#3FD6C4" stroke-width="7"></rect><rect x="12" y="54" width="34" height="34" rx="11" fill="none" stroke="#FFFFFF" stroke-width="7"></rect><rect x="54" y="54" width="34" height="34" rx="11" fill="none" stroke="#FFFFFF" stroke-width="7"></rect></g><g mask="url(#tw4)" stroke-width="6.5"><path d="M71 29 L50 50" stroke="#3FD6C4"></path><path d="M50 50 L29 71" stroke="#FFFFFF"></path></g><path d="M29 29 L71 71" stroke="#FFFFFF" stroke-width="6.5"></path><circle cx="29" cy="29" r="7.5" fill="#FFFFFF"></circle><circle cx="71" cy="29" r="7.5" fill="#3FD6C4"></circle><circle cx="29" cy="71" r="7.5" fill="#FFFFFF"></circle><circle cx="71" cy="71" r="7.5" fill="#FFFFFF"></circle><g fill="#141C3D"><rect x="25" y="29.5" width="2" height="3"></rect><rect x="28" y="27.5" width="2" height="5"></rect><rect x="31" y="25.5" width="2" height="7"></rect></g><g><path d="M66.8 26 H68.3 L69.4 30.6 H74.4 L75.3 27.4 H68.7" fill="none" stroke="#141C3D" stroke-width="1.3" stroke-linejoin="round" stroke-linecap="round"></path><circle cx="70.1" cy="32.4" r="0.95" fill="#141C3D"></circle><circle cx="73.7" cy="32.4" r="0.95" fill="#141C3D"></circle></g><g><rect x="26" y="67" width="6" height="8" rx="1" fill="#141C3D"></rect><rect x="27.2" y="69.2" width="3.6" height="0.9" fill="#FFFFFF"></rect><rect x="27.2" y="71.1" width="3.6" height="0.9" fill="#FFFFFF"></rect><rect x="27.2" y="73" width="2.2" height="0.9" fill="#FFFFFF"></rect></g><g fill="#141C3D"><circle cx="69.2" cy="69.4" r="1.5"></circle><circle cx="73.1" cy="69.8" r="1.25"></circle><path d="M66.5 74.8 a2.7 2.7 0 0 1 5.4 0 Z"></path><path d="M71.4 74.8 a2.1 2.1 0 0 1 4.2 0 Z"></path></g><g transform="translate(118 29) scale(1.05)"><g fill="#FFFFFF"><rect x="0" y="0" width="30" height="6"></rect><rect x="12" y="0" width="6" height="40"></rect><rect x="52" y="0" width="6" height="40"></rect><polygon points="80,0 86.7,0 97,29.5 107.3,0 114,0 100.4,40 93.6,40"></polygon><path fill-rule="evenodd" d="M136 20 A20 20 0 1 0 176 20 A20 20 0 1 0 136 20 Z M142 20 A14 14 0 1 0 170 20 A14 14 0 1 0 142 20 Z"></path><rect x="198" y="0" width="6" height="40"></rect><path fill-rule="evenodd" d="M198 0 H213 A12 12 0 0 1 213 24 H198 Z M204 6 H213 A6 6 0 0 1 213 18 H204 Z"></path><polygon points="210,27 217,27 226,40 219,40"></polygon><polygon points="261.6,0 268.4,0 282,40 275.3,40 265,10 254.7,40 248,40"></polygon></g><g fill="#3FD6C4" transform="translate(341 0)"><rect x="0" y="0" width="6" height="40"></rect><rect x="0" y="0" width="26" height="6"></rect><rect x="0" y="17" width="22" height="6"></rect><rect x="0" y="34" width="26" height="6"></rect><rect x="48" y="0" width="6" height="40"></rect><path fill-rule="evenodd" d="M48 0 H63 A12 12 0 0 1 63 24 H48 Z M54 6 H63 A6 6 0 0 1 63 18 H54 Z"></path><polygon points="60,27 67,27 76,40 69,40"></polygon><rect x="96" y="0" width="6" height="40"></rect><path fill-rule="evenodd" d="M96 0 H111 A12 12 0 0 1 111 24 H96 Z M102 6 H111 A6 6 0 0 1 111 18 H102 Z"></path></g><path d="M297 0 Q299.2 8.8 308 11 Q299.2 13.2 297 22 Q294.8 13.2 286 11 Q294.8 8.8 297 0 Z M312 22 Q313.0 26.0 317 27 Q313.0 28.0 312 32 Q311.0 28.0 307 27 Q311.0 26.0 312 22 Z" fill="#3FD6C4"></path></g></svg>